<svg width="23" height="22" viewBox="0 0 23 22" fill="none" xmlns="http://www.w3.org/2000/svg">
<path d="M7.43205 17.6709C7.43205 17.7605 7.32902 17.8322 7.1991 17.8322C7.05127 17.8456 6.94823 17.774 6.94823 17.6709C6.94823 17.5813 7.05127 17.5097 7.18118 17.5097C7.31558 17.4962 7.43205 17.5679 7.43205 17.6709ZM6.03882 17.4693C6.00746 17.5589 6.09706 17.662 6.23146 17.6889C6.34793 17.7337 6.48233 17.6889 6.50921 17.5993C6.53608 17.5097 6.45097 17.4066 6.31657 17.3663C6.2001 17.3349 6.07018 17.3797 6.03882 17.4693ZM8.01891 17.3932C7.889 17.4245 7.7994 17.5097 7.81284 17.6127C7.82628 17.7023 7.94275 17.7605 8.07715 17.7292C8.20706 17.6978 8.29666 17.6127 8.28322 17.5231C8.26978 17.438 8.14883 17.3797 8.01891 17.3932ZM10.9666 0.22644C4.75311 0.22644 0 4.94371 0 11.1572C0 16.1254 3.12693 20.3768 7.59333 21.873C8.16675 21.9761 8.36834 21.6222 8.36834 21.331C8.36834 21.0532 8.3549 19.5211 8.3549 18.5803C8.3549 18.5803 5.21901 19.2523 4.56048 17.2453C4.56048 17.2453 4.04977 15.9417 3.31508 15.6057C3.31508 15.6057 2.2892 14.9024 3.38676 14.9158C3.38676 14.9158 4.50224 15.0054 5.11598 16.0716C6.09706 17.8008 7.74116 17.3036 8.38178 17.0079C8.48481 16.2911 8.776 15.7939 9.09855 15.4982C6.59432 15.2205 4.06769 14.8576 4.06769 10.548C4.06769 9.31603 4.40816 8.69782 5.12494 7.90936C5.00846 7.61817 4.62767 6.41758 5.24141 4.86755C6.1777 4.57636 8.3325 6.07711 8.3325 6.07711C9.22847 5.82624 10.1916 5.69632 11.1458 5.69632C12.1 5.69632 13.0632 5.82624 13.9592 6.07711C13.9592 6.07711 16.114 4.57188 17.0503 4.86755C17.664 6.42206 17.2832 7.61817 17.1667 7.90936C17.8835 8.7023 18.3225 9.32051 18.3225 10.548C18.3225 14.871 15.6839 15.216 13.1797 15.4982C13.5918 15.8521 13.9413 16.5241 13.9413 17.5769C13.9413 19.0866 13.9278 20.9547 13.9278 21.322C13.9278 21.6132 14.1339 21.9671 14.7028 21.8641C19.1827 20.3768 22.22 16.1254 22.22 11.1572C22.22 4.94371 17.1802 0.22644 10.9666 0.22644ZM4.3544 15.6774C4.29617 15.7222 4.3096 15.8252 4.38576 15.9104C4.45744 15.982 4.56048 16.0134 4.61871 15.9552C4.67695 15.9104 4.66351 15.8073 4.58735 15.7222C4.51568 15.6505 4.41264 15.6192 4.3544 15.6774ZM3.87058 15.3145C3.83922 15.3728 3.88402 15.4445 3.97362 15.4893C4.04529 15.5341 4.13489 15.5206 4.16625 15.4579C4.19761 15.3997 4.15281 15.328 4.06321 15.2832C3.97362 15.2563 3.90194 15.2697 3.87058 15.3145ZM5.32205 16.9094C5.25037 16.9676 5.27725 17.102 5.38029 17.1871C5.48332 17.2901 5.61324 17.3036 5.67148 17.2319C5.72971 17.1737 5.70283 17.0393 5.61324 16.9542C5.51468 16.8511 5.38029 16.8377 5.32205 16.9094ZM4.81135 16.2508C4.73967 16.2956 4.73967 16.4121 4.81135 16.5151C4.88302 16.6182 5.00398 16.663 5.06222 16.6182C5.13389 16.5599 5.13389 16.4435 5.06222 16.3404C4.9995 16.2374 4.88302 16.1926 4.81135 16.2508Z" fill="black"/>
</svg>
