<svg width="23" height="22" viewBox="0 0 23 22" fill="none" xmlns="http://www.w3.org/2000/svg">
<path d="M11.916 5.44849C8.81058 5.44849 6.30569 7.95337 6.30569 11.0588C6.30569 14.1643 8.81058 16.6692 11.916 16.6692C15.0215 16.6692 17.5264 14.1643 17.5264 11.0588C17.5264 7.95337 15.0215 5.44849 11.916 5.44849ZM11.916 14.7063C9.90921 14.7063 8.26858 13.0706 8.26858 11.0588C8.26858 9.04712 9.90433 7.41138 11.916 7.41138C13.9278 7.41138 15.5635 9.04712 15.5635 11.0588C15.5635 13.0706 13.9229 14.7063 11.916 14.7063V14.7063ZM19.0645 5.21899C19.0645 5.94653 18.4785 6.52759 17.7559 6.52759C17.0284 6.52759 16.4473 5.94165 16.4473 5.21899C16.4473 4.49634 17.0332 3.9104 17.7559 3.9104C18.4785 3.9104 19.0645 4.49634 19.0645 5.21899ZM22.7803 6.54712C22.6973 4.79419 22.2969 3.24146 21.0127 1.96216C19.7334 0.682861 18.1807 0.282471 16.4278 0.19458C14.6211 0.092041 9.20609 0.092041 7.39944 0.19458C5.6514 0.277588 4.09866 0.677978 2.81448 1.95728C1.5303 3.23657 1.1348 4.78931 1.04691 6.54224C0.944366 8.34888 0.944366 13.7639 1.04691 15.5706C1.12991 17.3235 1.5303 18.8762 2.81448 20.1555C4.09866 21.4348 5.64651 21.8352 7.39944 21.9231C9.20609 22.0256 14.6211 22.0256 16.4278 21.9231C18.1807 21.8401 19.7334 21.4397 21.0127 20.1555C22.292 18.8762 22.6924 17.3235 22.7803 15.5706C22.8828 13.7639 22.8828 8.35376 22.7803 6.54712V6.54712ZM20.4463 17.509C20.0655 18.4661 19.3282 19.2034 18.3662 19.5891C16.9258 20.1604 13.5078 20.0286 11.916 20.0286C10.3242 20.0286 6.9014 20.1555 5.46585 19.5891C4.50882 19.2083 3.77152 18.4709 3.38577 17.509C2.81448 16.0686 2.94632 12.6506 2.94632 11.0588C2.94632 9.46704 2.81937 6.04419 3.38577 4.60864C3.76663 3.65161 4.50394 2.91431 5.46585 2.52856C6.90628 1.95728 10.3242 2.08911 11.916 2.08911C13.5078 2.08911 16.9307 1.96216 18.3662 2.52856C19.3233 2.90942 20.0606 3.64673 20.4463 4.60864C21.0176 6.04907 20.8858 9.46704 20.8858 11.0588C20.8858 12.6506 21.0176 16.0735 20.4463 17.509Z" fill="black"/>
</svg>
