<svg width="23" height="22" viewBox="0 0 23 22" fill="none" xmlns="http://www.w3.org/2000/svg">
<path d="M21.1697 0.121338H2.41483C1.55545 0.121338 0.857208 0.829346 0.857208 1.69849V20.4192C0.857208 21.2883 1.55545 21.9963 2.41483 21.9963H21.1697C22.0291 21.9963 22.7322 21.2883 22.7322 20.4192V1.69849C22.7322 0.829346 22.0291 0.121338 21.1697 0.121338ZM7.46854 18.8713H4.22635V8.43188H7.47342V18.8713H7.46854ZM5.84744 7.0061C4.8074 7.0061 3.96756 6.16138 3.96756 5.12622C3.96756 4.09106 4.8074 3.24634 5.84744 3.24634C6.8826 3.24634 7.72733 4.09106 7.72733 5.12622C7.72733 6.16626 6.88748 7.0061 5.84744 7.0061V7.0061ZM19.6219 18.8713H16.3797V13.7932C16.3797 12.5823 16.3553 11.0247 14.6951 11.0247C13.0056 11.0247 12.7469 12.343 12.7469 13.7053V18.8713H9.50467V8.43188H12.615V9.85767H12.659C13.0935 9.03735 14.1531 8.1731 15.7303 8.1731C19.0115 8.1731 19.6219 10.3362 19.6219 13.1487V18.8713V18.8713Z" fill="black"/>
</svg>
