<svg width="23" height="22" viewBox="0 0 23 22" fill="none" xmlns="http://www.w3.org/2000/svg">
<path d="M19.7513 0.121338H2.56375C1.94215 0.121338 1.34601 0.368268 0.90647 0.807806C0.466931 1.24734 0.220001 1.84349 0.220001 2.46509L0.220001 19.6526C0.220001 20.2742 0.466931 20.8703 0.90647 21.3099C1.34601 21.7494 1.94215 21.9963 2.56375 21.9963H9.26541V14.5593H6.18924V11.0588H9.26541V8.39087C9.26541 5.3562 11.0721 3.67993 13.8391 3.67993C15.1643 3.67993 16.5501 3.91626 16.5501 3.91626V6.89478H15.0232C13.5188 6.89478 13.0496 7.82837 13.0496 8.78589V11.0588H16.408L15.8709 14.5593H13.0496V21.9963H19.7513C20.3729 21.9963 20.969 21.7494 21.4085 21.3099C21.8481 20.8703 22.095 20.2742 22.095 19.6526V2.46509C22.095 1.84349 21.8481 1.24734 21.4085 0.807806C20.969 0.368268 20.3729 0.121338 19.7513 0.121338V0.121338Z" fill="black"/>
</svg>
