<svg width="48" height="48" viewBox="0 0 48 48" fill="none" xmlns="http://www.w3.org/2000/svg">
<mask id="mask0_49_422" style="mask-type:alpha" maskUnits="userSpaceOnUse" x="0" y="0" width="48" height="48">
<rect width="48" height="48" fill="#D9D9D9"/>
</mask>
<g mask="url(#mask0_49_422)">
<path d="M23.9883 41C26.7628 41 29.125 40.0289 31.075 38.0868C33.025 36.1446 34 33.7863 34 31.0117C34 28.2372 33.0289 25.875 31.0868 23.925C29.1446 21.975 26.7863 21 24.0117 21C21.2372 21 18.875 21.9711 16.925 23.9133C14.975 25.8554 14 28.2137 14 30.9883C14 33.7628 14.9711 36.125 16.9133 38.075C18.8554 40.025 21.2137 41 23.9883 41ZM17.3 19.85C18.2333 19.2833 19.2333 18.8417 20.3 18.525C21.3667 18.2083 22.4833 18.0333 23.65 18L18.15 7H10.85L17.3 19.85ZM30.7 19.85L37.15 7H29.85L24.35 18C25.5167 18.0333 26.6333 18.2083 27.7 18.525C28.7667 18.8417 29.7667 19.2833 30.7 19.85ZM13.65 38.85C12.8167 37.75 12.1667 36.5417 11.7 35.225C11.2333 33.9083 11 32.5 11 31C11 29.5 11.2333 28.0917 11.7 26.775C12.1667 25.4583 12.8167 24.25 13.65 23.15C11.75 23.4833 10.1667 24.375 8.9 25.825C7.63333 27.275 7 29 7 31C7 33 7.63333 34.725 8.9 36.175C10.1667 37.625 11.75 38.5167 13.65 38.85ZM34.35 38.85C36.25 38.5167 37.8333 37.625 39.1 36.175C40.3667 34.725 41 33 41 31C41 29 40.3667 27.275 39.1 25.825C37.8333 24.375 36.25 23.4833 34.35 23.15C35.1833 24.25 35.8333 25.4583 36.3 26.775C36.7667 28.0917 37 29.5 37 31C37 32.5 36.7667 33.9083 36.3 35.225C35.8333 36.5417 35.1833 37.75 34.35 38.85ZM24 44C22.6667 44 21.3917 43.8083 20.175 43.425C18.9583 43.0417 17.8333 42.5167 16.8 41.85C16.5 41.9167 16.2 41.9583 15.9 41.975C15.6 41.9917 15.2833 42 14.95 42C11.9167 42 9.33333 40.9333 7.2 38.8C5.06667 36.6667 4 34.0833 4 31.05C4 28.15 4.96667 25.6667 6.9 23.6C8.83333 21.5333 11.2167 20.3833 14.05 20.15L6 4H20L24 12L28 4H42L34 20.05C36.8333 20.3167 39.2083 21.4833 41.125 23.55C43.0417 25.6167 44 28.1 44 31C44 34.0667 42.9333 36.6667 40.8 38.8C38.6667 40.9333 36.0667 42 33 42C32.7 42 32.3917 41.9917 32.075 41.975C31.7583 41.9583 31.45 41.9167 31.15 41.85C30.1167 42.5167 29 43.0417 27.8 43.425C26.6 43.8083 25.3333 44 24 44ZM24 36L22.45 32.55L19 31L22.45 29.45L24 26L25.55 29.45L29 31L25.55 32.55L24 36Z" fill="#1C1B1F"/>
</g>
</svg>
