<svg width="22" height="22" viewBox="0 0 22 22" fill="none" xmlns="http://www.w3.org/2000/svg">
<path d="M19.6263 0.121338H2.43875C1.14481 0.121338 0.0950012 1.17114 0.0950012 2.46509V19.6526C0.0950012 20.9465 1.14481 21.9963 2.43875 21.9963H19.6263C20.9202 21.9963 21.97 20.9465 21.97 19.6526V2.46509C21.97 1.17114 20.9202 0.121338 19.6263 0.121338ZM17.2386 7.87524C17.2483 8.01196 17.2483 8.15356 17.2483 8.29028C17.2483 12.5237 14.0257 17.4016 8.13699 17.4016C6.32059 17.4016 4.63602 16.8743 3.22 15.9661C3.47879 15.9954 3.72781 16.0051 3.99149 16.0051C5.49051 16.0051 6.86746 15.4973 7.96609 14.6379C6.55984 14.6086 5.3782 13.6858 4.97293 12.4163C5.4661 12.4895 5.91043 12.4895 6.41824 12.3577C4.9534 12.0598 3.85477 10.7708 3.85477 9.21313V9.17407C4.27957 9.41333 4.77762 9.55981 5.30008 9.57935C4.86084 9.28717 4.50075 8.89081 4.25197 8.42561C4.00318 7.96042 3.87343 7.44087 3.8743 6.91333C3.8743 6.31763 4.03055 5.77075 4.30887 5.29712C5.88602 7.24048 8.25418 8.51001 10.9104 8.64673C10.4563 6.47388 12.0823 4.71118 14.0354 4.71118C14.9583 4.71118 15.7884 5.09692 16.3743 5.72192C17.097 5.5852 17.7903 5.31665 18.4055 4.95044C18.1663 5.69263 17.6634 6.31763 16.9993 6.71313C17.6438 6.64478 18.2688 6.46411 18.845 6.21509C18.4104 6.85474 17.8636 7.42114 17.2386 7.87524Z" fill="black"/>
</svg>
